<svg width="750" height="700" xmlns="http://www.w3.org/2000/svg"><path stroke="#000" fill="#f0f8ff" d="M2 2h20v20H2z"/><text x="24" y="22" font-size="16" color="currentColor"><tspan>aliceblue</tspan></text><path stroke="#000" fill="#faebd7" d="M152 2h20v20h-20z"/><text x="174" y="22" font-size="16" color="currentColor"><tspan>antiquewhite</tspan></text><path stroke="#000" fill="#0ff" d="M302 2h20v20h-20z"/><text x="324" y="22" font-size="16" color="currentColor"><tspan>aqua</tspan></text><path stroke="#000" fill="#7fffd4" d="M452 2h20v20h-20z"/><text x="474" y="22" font-size="16" color="currentColor"><tspan>aquamarine</tspan></text><path stroke="#000" fill="azure" d="M602 2h20v20h-20z"/><text x="624" y="22" font-size="16" color="currentColor"><tspan>azure</tspan></text><path stroke="#000" fill="beige" d="M2 26h20v20H2z"/><text x="24" y="46" font-size="16" color="currentColor"><tspan>beige</tspan></text><path stroke="#000" fill="bisque" d="M152 26h20v20h-20z"/><text x="174" y="46" font-size="16" color="currentColor"><tspan>bisque</tspan></text><path stroke="#000" d="M302 26h20v20h-20z"/><text x="324" y="46" font-size="16" color="currentColor"><tspan>black</tspan></text><path stroke="#000" fill="#ffebcd" d="M452 26h20v20h-20z"/><text x="474" y="46" font-size="16" color="currentColor"><tspan>blanchedalmond</tspan></text><path stroke="#000" fill="#00f" d="M602 26h20v20h-20z"/><text x="624" y="46" font-size="16" color="currentColor"><tspan>blue</tspan></text><path stroke="#000" fill="#8a2be2" d="M2 50h20v20H2z"/><text x="24" y="70" font-size="16" color="currentColor"><tspan>blueviolet</tspan></text><path stroke="#000" fill="brown" d="M152 50h20v20h-20z"/><text x="174" y="70" font-size="16" color="currentColor"><tspan>brown</tspan></text><path stroke="#000" fill="#deb887" d="M302 50h20v20h-20z"/><text x="324" y="70" font-size="16" color="currentColor"><tspan>burlywood</tspan></text><path stroke="#000" fill="#5f9ea0" d="M452 50h20v20h-20z"/><text x="474" y="70" font-size="16" color="currentColor"><tspan>cadetblue</tspan></text><path stroke="#000" fill="#7fff00" d="M602 50h20v20h-20z"/><text x="624" y="70" font-size="16" color="currentColor"><tspan>chartreuse</tspan></text><path stroke="#000" fill="#d2691e" d="M2 74h20v20H2z"/><text x="24" y="94" font-size="16" color="currentColor"><tspan>chocolate</tspan></text><path stroke="#000" fill="coral" d="M152 74h20v20h-20z"/><text x="174" y="94" font-size="16" color="currentColor"><tspan>coral</tspan></text><path stroke="#000" fill="#6495ed" d="M302 74h20v20h-20z"/><text x="324" y="94" font-size="16" color="currentColor"><tspan>cornflowerblue</tspan></text><path stroke="#000" fill="#fff8dc" d="M452 74h20v20h-20z"/><text x="474" y="94" font-size="16" color="currentColor"><tspan>cornsilk</tspan></text><path stroke="#000" fill="#dc143c" d="M602 74h20v20h-20z"/><text x="624" y="94" font-size="16" color="currentColor"><tspan>crimson</tspan></text><path stroke="#000" fill="#0ff" d="M2 98h20v20H2z"/><text x="24" y="118" font-size="16" color="currentColor"><tspan>cyan</tspan></text><path stroke="#000" fill="#00008b" d="M152 98h20v20h-20z"/><text x="174" y="118" font-size="16" color="currentColor"><tspan>darkblue</tspan></text><path stroke="#000" fill="#008b8b" d="M302 98h20v20h-20z"/><text x="324" y="118" font-size="16" color="currentColor"><tspan>darkcyan</tspan></text><path stroke="#000" fill="#b8860b" d="M452 98h20v20h-20z"/><text x="474" y="118" font-size="16" color="currentColor"><tspan>darkgoldenrod</tspan></text><path stroke="#000" fill="#a9a9a9" d="M602 98h20v20h-20z"/><text x="624" y="118" font-size="16" color="currentColor"><tspan>darkgray</tspan></text><path stroke="#000" fill="#006400" d="M2 122h20v20H2z"/><text x="24" y="142" font-size="16" color="currentColor"><tspan>darkgreen</tspan></text><path stroke="#000" fill="#bdb76b" d="M152 122h20v20h-20z"/><text x="174" y="142" font-size="16" color="currentColor"><tspan>darkkhaki</tspan></text><path stroke="#000" fill="#8b008b" d="M302 122h20v20h-20z"/><text x="324" y="142" font-size="16" color="currentColor"><tspan>darkmagenta</tspan></text><path stroke="#000" fill="#556b2f" d="M452 122h20v20h-20z"/><text x="474" y="142" font-size="16" color="currentColor"><tspan>darkolivegreen</tspan></text><path stroke="#000" fill="#ff8c00" d="M602 122h20v20h-20z"/><text x="624" y="142" font-size="16" color="currentColor"><tspan>darkorange</tspan></text><path stroke="#000" fill="#9932cc" d="M2 146h20v20H2z"/><text x="24" y="166" font-size="16" color="currentColor"><tspan>darkorchid</tspan></text><path stroke="#000" fill="#8b0000" d="M152 146h20v20h-20z"/><text x="174" y="166" font-size="16" color="currentColor"><tspan>darkred</tspan></text><path stroke="#000" fill="#e9967a" d="M302 146h20v20h-20z"/><text x="324" y="166" font-size="16" color="currentColor"><tspan>darksalmon</tspan></text><path stroke="#000" fill="#8fbc8f" d="M452 146h20v20h-20z"/><text x="474" y="166" font-size="16" color="currentColor"><tspan>darkseagreen</tspan></text><path stroke="#000" fill="#483d8b" d="M602 146h20v20h-20z"/><text x="624" y="166" font-size="16" color="currentColor"><tspan>darkslateblue</tspan></text><path stroke="#000" fill="#2f4f4f" d="M2 170h20v20H2z"/><text x="24" y="190" font-size="16" color="currentColor"><tspan>darkslategray</tspan></text><path stroke="#000" fill="#00ced1" d="M152 170h20v20h-20z"/><text x="174" y="190" font-size="16" color="currentColor"><tspan>darkturquoise</tspan></text><path stroke="#000" fill="#9400d3" d="M302 170h20v20h-20z"/><text x="324" y="190" font-size="16" color="currentColor"><tspan>darkviolet</tspan></text><path stroke="#000" fill="#ff1493" d="M452 170h20v20h-20z"/><text x="474" y="190" font-size="16" color="currentColor"><tspan>deeppink</tspan></text><path stroke="#000" fill="#00bfff" d="M602 170h20v20h-20z"/><text x="624" y="190" font-size="16" color="currentColor"><tspan>deepskyblue</tspan></text><path stroke="#000" fill="#696969" d="M2 194h20v20H2z"/><text x="24" y="214" font-size="16" color="currentColor"><tspan>dimgray</tspan></text><path stroke="#000" fill="#1e90ff" d="M152 194h20v20h-20z"/><text x="174" y="214" font-size="16" color="currentColor"><tspan>dodgerblue</tspan></text><path stroke="#000" fill="#b22222" d="M302 194h20v20h-20z"/><text x="324" y="214" font-size="16" color="currentColor"><tspan>firebrick</tspan></text><path stroke="#000" fill="#fffaf0" d="M452 194h20v20h-20z"/><text x="474" y="214" font-size="16" color="currentColor"><tspan>floralwhite</tspan></text><path stroke="#000" fill="#228b22" d="M602 194h20v20h-20z"/><text x="624" y="214" font-size="16" color="currentColor"><tspan>forestgreen</tspan></text><path stroke="#000" fill="#f0f" d="M2 218h20v20H2z"/><text x="24" y="238" font-size="16" color="currentColor"><tspan>fuchsia</tspan></text><path stroke="#000" fill="#dcdcdc" d="M152 218h20v20h-20z"/><text x="174" y="238" font-size="16" color="currentColor"><tspan>gainsboro</tspan></text><path stroke="#000" fill="#f8f8ff" d="M302 218h20v20h-20z"/><text x="324" y="238" font-size="16" color="currentColor"><tspan>ghostwhite</tspan></text><path stroke="#000" fill="gold" d="M452 218h20v20h-20z"/><text x="474" y="238" font-size="16" color="currentColor"><tspan>gold</tspan></text><path stroke="#000" fill="#daa520" d="M602 218h20v20h-20z"/><text x="624" y="238" font-size="16" color="currentColor"><tspan>goldenrod</tspan></text><path stroke="#000" fill="gray" d="M2 242h20v20H2z"/><text x="24" y="262" font-size="16" color="currentColor"><tspan>gray</tspan></text><path stroke="#000" fill="green" d="M152 242h20v20h-20z"/><text x="174" y="262" font-size="16" color="currentColor"><tspan>green</tspan></text><path stroke="#000" fill="#adff2f" d="M302 242h20v20h-20z"/><text x="324" y="262" font-size="16" color="currentColor"><tspan>greenyellow</tspan></text><path stroke="#000" fill="#f0fff0" d="M452 242h20v20h-20z"/><text x="474" y="262" font-size="16" color="currentColor"><tspan>honeydew</tspan></text><path stroke="#000" fill="#ff69b4" d="M602 242h20v20h-20z"/><text x="624" y="262" font-size="16" color="currentColor"><tspan>hotpink</tspan></text><path stroke="#000" fill="#cd5c5c" d="M2 266h20v20H2z"/><text x="24" y="286" font-size="16" color="currentColor"><tspan>indianred</tspan></text><path stroke="#000" fill="indigo" d="M152 266h20v20h-20z"/><text x="174" y="286" font-size="16" color="currentColor"><tspan>indigo</tspan></text><path stroke="#000" fill="ivory" d="M302 266h20v20h-20z"/><text x="324" y="286" font-size="16" color="currentColor"><tspan>ivory</tspan></text><path stroke="#000" fill="khaki" d="M452 266h20v20h-20z"/><text x="474" y="286" font-size="16" color="currentColor"><tspan>khaki</tspan></text><path stroke="#000" fill="#e6e6fa" d="M602 266h20v20h-20z"/><text x="624" y="286" font-size="16" color="currentColor"><tspan>lavender</tspan></text><path stroke="#000" fill="#fff0f5" d="M2 290h20v20H2z"/><text x="24" y="310" font-size="16" color="currentColor"><tspan>lavenderblush</tspan></text><path stroke="#000" fill="#7cfc00" d="M152 290h20v20h-20z"/><text x="174" y="310" font-size="16" color="currentColor"><tspan>lawngreen</tspan></text><path stroke="#000" fill="#fffacd" d="M302 290h20v20h-20z"/><text x="324" y="310" font-size="16" color="currentColor"><tspan>lemonchiffon</tspan></text><path stroke="#000" fill="#add8e6" d="M452 290h20v20h-20z"/><text x="474" y="310" font-size="16" color="currentColor"><tspan>lightblue</tspan></text><path stroke="#000" fill="#f08080" d="M602 290h20v20h-20z"/><text x="624" y="310" font-size="16" color="currentColor"><tspan>lightcoral</tspan></text><path stroke="#000" fill="#e0ffff" d="M2 314h20v20H2z"/><text x="24" y="334" font-size="16" color="currentColor"><tspan>lightcyan</tspan></text><path stroke="#000" fill="#fafad2" d="M152 314h20v20h-20z"/><text x="174" y="334" font-size="16" color="currentColor"><tspan>lightgoldenrodyellow</tspan></text><path stroke="#000" fill="#d3d3d3" d="M302 314h20v20h-20z"/><text x="324" y="334" font-size="16" color="currentColor"><tspan>lightgray</tspan></text><path stroke="#000" fill="#90ee90" d="M452 314h20v20h-20z"/><text x="474" y="334" font-size="16" color="currentColor"><tspan>lightgreen</tspan></text><path stroke="#000" fill="#ffb6c1" d="M602 314h20v20h-20z"/><text x="624" y="334" font-size="16" color="currentColor"><tspan>lightpink</tspan></text><path stroke="#000" fill="#ffa07a" d="M2 338h20v20H2z"/><text x="24" y="358" font-size="16" color="currentColor"><tspan>lightsalmon</tspan></text><path stroke="#000" fill="#20b2aa" d="M152 338h20v20h-20z"/><text x="174" y="358" font-size="16" color="currentColor"><tspan>lightseagreen</tspan></text><path stroke="#000" fill="#87cefa" d="M302 338h20v20h-20z"/><text x="324" y="358" font-size="16" color="currentColor"><tspan>lightskyblue</tspan></text><path stroke="#000" fill="#789" d="M452 338h20v20h-20z"/><text x="474" y="358" font-size="16" color="currentColor"><tspan>lightslategray</tspan></text><path stroke="#000" fill="#b0c4de" d="M602 338h20v20h-20z"/><text x="624" y="358" font-size="16" color="currentColor"><tspan>lightsteelblue</tspan></text><path stroke="#000" fill="#ffffe0" d="M2 362h20v20H2z"/><text x="24" y="382" font-size="16" color="currentColor"><tspan>lightyellow</tspan></text><path stroke="#000" fill="#0f0" d="M152 362h20v20h-20z"/><text x="174" y="382" font-size="16" color="currentColor"><tspan>lime</tspan></text><path stroke="#000" fill="#32cd32" d="M302 362h20v20h-20z"/><text x="324" y="382" font-size="16" color="currentColor"><tspan>limegreen</tspan></text><path stroke="#000" fill="linen" d="M452 362h20v20h-20z"/><text x="474" y="382" font-size="16" color="currentColor"><tspan>linen</tspan></text><path stroke="#000" fill="#f0f" d="M602 362h20v20h-20z"/><text x="624" y="382" font-size="16" color="currentColor"><tspan>magenta</tspan></text><path stroke="#000" fill="maroon" d="M2 386h20v20H2z"/><text x="24" y="406" font-size="16" color="currentColor"><tspan>maroon</tspan></text><path stroke="#000" fill="#66cdaa" d="M152 386h20v20h-20z"/><text x="174" y="406" font-size="16" color="currentColor"><tspan>mediumaquamarine</tspan></text><path stroke="#000" fill="#0000cd" d="M302 386h20v20h-20z"/><text x="324" y="406" font-size="16" color="currentColor"><tspan>mediumblue</tspan></text><path stroke="#000" fill="#ba55d3" d="M452 386h20v20h-20z"/><text x="474" y="406" font-size="16" color="currentColor"><tspan>mediumorchid</tspan></text><path stroke="#000" fill="#9370d8" d="M602 386h20v20h-20z"/><text x="624" y="406" font-size="16" color="currentColor"><tspan>mediumpurple</tspan></text><path stroke="#000" fill="#3cb371" d="M2 410h20v20H2z"/><text x="24" y="430" font-size="16" color="currentColor"><tspan>mediumseagreen</tspan></text><path stroke="#000" fill="#7b68ee" d="M152 410h20v20h-20z"/><text x="174" y="430" font-size="16" color="currentColor"><tspan>mediumslateblue</tspan></text><path stroke="#000" fill="#00fa9a" d="M302 410h20v20h-20z"/><text x="324" y="430" font-size="16" color="currentColor"><tspan>mediumspringgreen</tspan></text><path stroke="#000" fill="#48d1cc" d="M452 410h20v20h-20z"/><text x="474" y="430" font-size="16" color="currentColor"><tspan>mediumturquoise</tspan></text><path stroke="#000" fill="#c71585" d="M602 410h20v20h-20z"/><text x="624" y="430" font-size="16" color="currentColor"><tspan>mediumvioletred</tspan></text><path stroke="#000" fill="#191970" d="M2 434h20v20H2z"/><text x="24" y="454" font-size="16" color="currentColor"><tspan>midnightblue</tspan></text><path stroke="#000" fill="#f5fffa" d="M152 434h20v20h-20z"/><text x="174" y="454" font-size="16" color="currentColor"><tspan>mintcream</tspan></text><path stroke="#000" fill="#ffe4e1" d="M302 434h20v20h-20z"/><text x="324" y="454" font-size="16" color="currentColor"><tspan>mistyrose</tspan></text><path stroke="#000" fill="#ffe4b5" d="M452 434h20v20h-20z"/><text x="474" y="454" font-size="16" color="currentColor"><tspan>moccasin</tspan></text><path stroke="#000" fill="#ffdead" d="M602 434h20v20h-20z"/><text x="624" y="454" font-size="16" color="currentColor"><tspan>navajowhite</tspan></text><path stroke="#000" fill="navy" d="M2 458h20v20H2z"/><text x="24" y="478" font-size="16" color="currentColor"><tspan>navy</tspan></text><path stroke="#000" fill="#fdf5e6" d="M152 458h20v20h-20z"/><text x="174" y="478" font-size="16" color="currentColor"><tspan>oldlace</tspan></text><path stroke="#000" fill="olive" d="M302 458h20v20h-20z"/><text x="324" y="478" font-size="16" color="currentColor"><tspan>olive</tspan></text><path stroke="#000" fill="#6b8e23" d="M452 458h20v20h-20z"/><text x="474" y="478" font-size="16" color="currentColor"><tspan>olivedrab</tspan></text><path stroke="#000" fill="orange" d="M602 458h20v20h-20z"/><text x="624" y="478" font-size="16" color="currentColor"><tspan>orange</tspan></text><path stroke="#000" fill="#ff4500" d="M2 482h20v20H2z"/><text x="24" y="502" font-size="16" color="currentColor"><tspan>orangered</tspan></text><path stroke="#000" fill="orchid" d="M152 482h20v20h-20z"/><text x="174" y="502" font-size="16" color="currentColor"><tspan>orchid</tspan></text><path stroke="#000" fill="#eee8aa" d="M302 482h20v20h-20z"/><text x="324" y="502" font-size="16" color="currentColor"><tspan>palegoldenrod</tspan></text><path stroke="#000" fill="#98fb98" d="M452 482h20v20h-20z"/><text x="474" y="502" font-size="16" color="currentColor"><tspan>palegreen</tspan></text><path stroke="#000" fill="#afeeee" d="M602 482h20v20h-20z"/><text x="624" y="502" font-size="16" color="currentColor"><tspan>paleturquoise</tspan></text><path stroke="#000" fill="#d87093" d="M2 506h20v20H2z"/><text x="24" y="526" font-size="16" color="currentColor"><tspan>palevioletred</tspan></text><path stroke="#000" fill="#ffefd5" d="M152 506h20v20h-20z"/><text x="174" y="526" font-size="16" color="currentColor"><tspan>papayawhip</tspan></text><path stroke="#000" fill="#ffdab9" d="M302 506h20v20h-20z"/><text x="324" y="526" font-size="16" color="currentColor"><tspan>peachpuff</tspan></text><path stroke="#000" fill="peru" d="M452 506h20v20h-20z"/><text x="474" y="526" font-size="16" color="currentColor"><tspan>peru</tspan></text><path stroke="#000" fill="pink" d="M602 506h20v20h-20z"/><text x="624" y="526" font-size="16" color="currentColor"><tspan>pink</tspan></text><path stroke="#000" fill="plum" d="M2 530h20v20H2z"/><text x="24" y="550" font-size="16" color="currentColor"><tspan>plum</tspan></text><path stroke="#000" fill="#b0e0e6" d="M152 530h20v20h-20z"/><text x="174" y="550" font-size="16" color="currentColor"><tspan>powderblue</tspan></text><path stroke="#000" fill="purple" d="M302 530h20v20h-20z"/><text x="324" y="550" font-size="16" color="currentColor"><tspan>purple</tspan></text><path stroke="#000" fill="#639" d="M452 530h20v20h-20z"/><text x="474" y="550" font-size="16" color="currentColor"><tspan>rebeccapurple</tspan></text><path stroke="#000" fill="red" d="M602 530h20v20h-20z"/><text x="624" y="550" font-size="16" color="currentColor"><tspan>red</tspan></text><path stroke="#000" fill="#bc8f8f" d="M2 554h20v20H2z"/><text x="24" y="574" font-size="16" color="currentColor"><tspan>rosybrown</tspan></text><path stroke="#000" fill="#4169e1" d="M152 554h20v20h-20z"/><text x="174" y="574" font-size="16" color="currentColor"><tspan>royalblue</tspan></text><path stroke="#000" fill="#8b4513" d="M302 554h20v20h-20z"/><text x="324" y="574" font-size="16" color="currentColor"><tspan>saddlebrown</tspan></text><path stroke="#000" fill="salmon" d="M452 554h20v20h-20z"/><text x="474" y="574" font-size="16" color="currentColor"><tspan>salmon</tspan></text><path stroke="#000" fill="#f4a460" d="M602 554h20v20h-20z"/><text x="624" y="574" font-size="16" color="currentColor"><tspan>sandybrown</tspan></text><path stroke="#000" fill="#2e8b57" d="M2 578h20v20H2z"/><text x="24" y="598" font-size="16" color="currentColor"><tspan>seagreen</tspan></text><path stroke="#000" fill="#fff5ee" d="M152 578h20v20h-20z"/><text x="174" y="598" font-size="16" color="currentColor"><tspan>seashell</tspan></text><path stroke="#000" fill="sienna" d="M302 578h20v20h-20z"/><text x="324" y="598" font-size="16" color="currentColor"><tspan>sienna</tspan></text><path stroke="#000" fill="silver" d="M452 578h20v20h-20z"/><text x="474" y="598" font-size="16" color="currentColor"><tspan>silver</tspan></text><path stroke="#000" fill="#87ceeb" d="M602 578h20v20h-20z"/><text x="624" y="598" font-size="16" color="currentColor"><tspan>skyblue</tspan></text><path stroke="#000" fill="#6a5acd" d="M2 602h20v20H2z"/><text x="24" y="622" font-size="16" color="currentColor"><tspan>slateblue</tspan></text><path stroke="#000" fill="#708090" d="M152 602h20v20h-20z"/><text x="174" y="622" font-size="16" color="currentColor"><tspan>slategray</tspan></text><path stroke="#000" fill="snow" d="M302 602h20v20h-20z"/><text x="324" y="622" font-size="16" color="currentColor"><tspan>snow</tspan></text><path stroke="#000" fill="#00ff7f" d="M452 602h20v20h-20z"/><text x="474" y="622" font-size="16" color="currentColor"><tspan>springgreen</tspan></text><path stroke="#000" fill="#4682b4" d="M602 602h20v20h-20z"/><text x="624" y="622" font-size="16" color="currentColor"><tspan>steelblue</tspan></text><path stroke="#000" fill="tan" d="M2 626h20v20H2z"/><text x="24" y="646" font-size="16" color="currentColor"><tspan>tan</tspan></text><path stroke="#000" fill="teal" d="M152 626h20v20h-20z"/><text x="174" y="646" font-size="16" color="currentColor"><tspan>teal</tspan></text><path stroke="#000" fill="#d8bfd8" d="M302 626h20v20h-20z"/><text x="324" y="646" font-size="16" color="currentColor"><tspan>thistle</tspan></text><path stroke="#000" fill="tomato" d="M452 626h20v20h-20z"/><text x="474" y="646" font-size="16" color="currentColor"><tspan>tomato</tspan></text><path stroke="#000" fill="#40e0d0" d="M602 626h20v20h-20z"/><text x="624" y="646" font-size="16" color="currentColor"><tspan>turquoise</tspan></text><path stroke="#000" fill="violet" d="M2 650h20v20H2z"/><text x="24" y="670" font-size="16" color="currentColor"><tspan>violet</tspan></text><path stroke="#000" fill="wheat" d="M152 650h20v20h-20z"/><text x="174" y="670" font-size="16" color="currentColor"><tspan>wheat</tspan></text><path stroke="#000" fill="#fff" d="M302 650h20v20h-20z"/><text x="324" y="670" font-size="16" color="currentColor"><tspan>white</tspan></text><path stroke="#000" fill="#f5f5f5" d="M452 650h20v20h-20z"/><text x="474" y="670" font-size="16" color="currentColor"><tspan>whitesmoke</tspan></text><path stroke="#000" fill="#ff0" d="M602 650h20v20h-20z"/><text x="624" y="670" font-size="16" color="currentColor"><tspan>yellow</tspan></text><path stroke="#000" fill="#9acd32" d="M2 674h20v20H2z"/><text x="24" y="694" font-size="16" color="currentColor"><tspan>yellowgreen</tspan></text></svg>