<svg width="728" height="904" xmlns="http://www.w3.org/2000/svg"><path stroke="#000" fill="#fff" d="M2 2h20v20H2z"/><text x="24" y="22" font-size="16" color="currentColor"><tspan>#FFFFFF</tspan></text><path stroke="#000" fill="#ccc" d="M106 2h20v20h-20z"/><text x="128" y="22" font-size="16" color="currentColor"><tspan>#CCCCCC</tspan></text><path stroke="#000" fill="#999" d="M210 2h20v20h-20z"/><text x="232" y="22" font-size="16" color="currentColor"><tspan>#999999</tspan></text><path stroke="#000" fill="#666" d="M314 2h20v20h-20z"/><text x="336" y="22" font-size="16" color="currentColor"><tspan>#666666</tspan></text><path stroke="#000" fill="#333" d="M418 2h20v20h-20z"/><text x="440" y="22" font-size="16" color="currentColor"><tspan>#333333</tspan></text><path stroke="#000" d="M522 2h20v20h-20z"/><text x="544" y="22" font-size="16" color="currentColor"><tspan>#000000</tspan></text><path stroke="#000" fill="red" d="M2 38h20v20H2z"/><text x="24" y="58" font-size="16" color="currentColor"><tspan>#FF0000</tspan></text><path stroke="#000" fill="#f33" d="M106 38h20v20h-20z"/><text x="128" y="58" font-size="16" color="currentColor"><tspan>#FF3333</tspan></text><path stroke="#000" fill="#f66" d="M210 38h20v20h-20z"/><text x="232" y="58" font-size="16" color="currentColor"><tspan>#FF6666</tspan></text><path stroke="#000" fill="#f99" d="M314 38h20v20h-20z"/><text x="336" y="58" font-size="16" color="currentColor"><tspan>#FF9999</tspan></text><path stroke="#000" fill="#fcc" d="M418 38h20v20h-20z"/><text x="440" y="58" font-size="16" color="currentColor"><tspan>#FFCCCC</tspan></text><path stroke="#000" fill="#c00" d="M522 38h20v20h-20z"/><text x="544" y="58" font-size="16" color="currentColor"><tspan>#CC0000</tspan></text><path stroke="#000" fill="#c33" d="M626 38h20v20h-20z"/><text x="648" y="58" font-size="16" color="currentColor"><tspan>#CC3333</tspan></text><path stroke="#000" fill="#c66" d="M2 62h20v20H2z"/><text x="24" y="82" font-size="16" color="currentColor"><tspan>#CC6666</tspan></text><path stroke="#000" fill="#c99" d="M106 62h20v20h-20z"/><text x="128" y="82" font-size="16" color="currentColor"><tspan>#CC9999</tspan></text><path stroke="#000" fill="#900" d="M210 62h20v20h-20z"/><text x="232" y="82" font-size="16" color="currentColor"><tspan>#990000</tspan></text><path stroke="#000" fill="#933" d="M314 62h20v20h-20z"/><text x="336" y="82" font-size="16" color="currentColor"><tspan>#993333</tspan></text><path stroke="#000" fill="#966" d="M418 62h20v20h-20z"/><text x="440" y="82" font-size="16" color="currentColor"><tspan>#996666</tspan></text><path stroke="#000" fill="#600" d="M522 62h20v20h-20z"/><text x="544" y="82" font-size="16" color="currentColor"><tspan>#660000</tspan></text><path stroke="#000" fill="#633" d="M626 62h20v20h-20z"/><text x="648" y="82" font-size="16" color="currentColor"><tspan>#663333</tspan></text><path stroke="#000" fill="#300" d="M2 86h20v20H2z"/><text x="24" y="106" font-size="16" color="currentColor"><tspan>#330000</tspan></text><path stroke="#000" fill="#f30" d="M2 122h20v20H2z"/><text x="24" y="142" font-size="16" color="currentColor"><tspan>#FF3300</tspan></text><path stroke="#000" fill="#f63" d="M106 122h20v20h-20z"/><text x="128" y="142" font-size="16" color="currentColor"><tspan>#FF6633</tspan></text><path stroke="#000" fill="#c30" d="M210 122h20v20h-20z"/><text x="232" y="142" font-size="16" color="currentColor"><tspan>#CC3300</tspan></text><path stroke="#000" fill="#f96" d="M314 122h20v20h-20z"/><text x="336" y="142" font-size="16" color="currentColor"><tspan>#FF9966</tspan></text><path stroke="#000" fill="#c63" d="M418 122h20v20h-20z"/><text x="440" y="142" font-size="16" color="currentColor"><tspan>#CC6633</tspan></text><path stroke="#000" fill="#930" d="M522 122h20v20h-20z"/><text x="544" y="142" font-size="16" color="currentColor"><tspan>#993300</tspan></text><path stroke="#000" fill="#f60" d="M626 122h20v20h-20z"/><text x="648" y="142" font-size="16" color="currentColor"><tspan>#FF6600</tspan></text><path stroke="#000" fill="#c96" d="M2 146h20v20H2z"/><text x="24" y="166" font-size="16" color="currentColor"><tspan>#CC9966</tspan></text><path stroke="#000" fill="#f93" d="M106 146h20v20h-20z"/><text x="128" y="166" font-size="16" color="currentColor"><tspan>#FF9933</tspan></text><path stroke="#000" fill="#c60" d="M210 146h20v20h-20z"/><text x="232" y="166" font-size="16" color="currentColor"><tspan>#CC6600</tspan></text><path stroke="#000" fill="#630" d="M314 146h20v20h-20z"/><text x="336" y="166" font-size="16" color="currentColor"><tspan>#663300</tspan></text><path stroke="#000" fill="#fc9" d="M418 146h20v20h-20z"/><text x="440" y="166" font-size="16" color="currentColor"><tspan>#FFCC99</tspan></text><path stroke="#000" fill="#963" d="M522 146h20v20h-20z"/><text x="544" y="166" font-size="16" color="currentColor"><tspan>#996633</tspan></text><path stroke="#000" fill="#f90" d="M626 146h20v20h-20z"/><text x="648" y="166" font-size="16" color="currentColor"><tspan>#FF9900</tspan></text><path stroke="#000" fill="#c93" d="M2 170h20v20H2z"/><text x="24" y="190" font-size="16" color="currentColor"><tspan>#CC9933</tspan></text><path stroke="#000" fill="#fc6" d="M106 170h20v20h-20z"/><text x="128" y="190" font-size="16" color="currentColor"><tspan>#FFCC66</tspan></text><path stroke="#000" fill="#960" d="M210 170h20v20h-20z"/><text x="232" y="190" font-size="16" color="currentColor"><tspan>#996600</tspan></text><path stroke="#000" fill="#c90" d="M314 170h20v20h-20z"/><text x="336" y="190" font-size="16" color="currentColor"><tspan>#CC9900</tspan></text><path stroke="#000" fill="#fc3" d="M418 170h20v20h-20z"/><text x="440" y="190" font-size="16" color="currentColor"><tspan>#FFCC33</tspan></text><path stroke="#000" fill="#fc0" d="M522 170h20v20h-20z"/><text x="544" y="190" font-size="16" color="currentColor"><tspan>#FFCC00</tspan></text><path stroke="#000" fill="#ff0" d="M2 206h20v20H2z"/><text x="24" y="226" font-size="16" color="currentColor"><tspan>#FFFF00</tspan></text><path stroke="#000" fill="#ff3" d="M106 206h20v20h-20z"/><text x="128" y="226" font-size="16" color="currentColor"><tspan>#FFFF33</tspan></text><path stroke="#000" fill="#ff6" d="M210 206h20v20h-20z"/><text x="232" y="226" font-size="16" color="currentColor"><tspan>#FFFF66</tspan></text><path stroke="#000" fill="#ff9" d="M314 206h20v20h-20z"/><text x="336" y="226" font-size="16" color="currentColor"><tspan>#FFFF99</tspan></text><path stroke="#000" fill="#ffc" d="M418 206h20v20h-20z"/><text x="440" y="226" font-size="16" color="currentColor"><tspan>#FFFFCC</tspan></text><path stroke="#000" fill="#cc0" d="M522 206h20v20h-20z"/><text x="544" y="226" font-size="16" color="currentColor"><tspan>#CCCC00</tspan></text><path stroke="#000" fill="#cc3" d="M626 206h20v20h-20z"/><text x="648" y="226" font-size="16" color="currentColor"><tspan>#CCCC33</tspan></text><path stroke="#000" fill="#cc6" d="M2 230h20v20H2z"/><text x="24" y="250" font-size="16" color="currentColor"><tspan>#CCCC66</tspan></text><path stroke="#000" fill="#cc9" d="M106 230h20v20h-20z"/><text x="128" y="250" font-size="16" color="currentColor"><tspan>#CCCC99</tspan></text><path stroke="#000" fill="#990" d="M210 230h20v20h-20z"/><text x="232" y="250" font-size="16" color="currentColor"><tspan>#999900</tspan></text><path stroke="#000" fill="#993" d="M314 230h20v20h-20z"/><text x="336" y="250" font-size="16" color="currentColor"><tspan>#999933</tspan></text><path stroke="#000" fill="#996" d="M418 230h20v20h-20z"/><text x="440" y="250" font-size="16" color="currentColor"><tspan>#999966</tspan></text><path stroke="#000" fill="#660" d="M522 230h20v20h-20z"/><text x="544" y="250" font-size="16" color="currentColor"><tspan>#666600</tspan></text><path stroke="#000" fill="#663" d="M626 230h20v20h-20z"/><text x="648" y="250" font-size="16" color="currentColor"><tspan>#666633</tspan></text><path stroke="#000" fill="#330" d="M2 254h20v20H2z"/><text x="24" y="274" font-size="16" color="currentColor"><tspan>#333300</tspan></text><path stroke="#000" fill="#cf0" d="M2 290h20v20H2z"/><text x="24" y="310" font-size="16" color="currentColor"><tspan>#CCFF00</tspan></text><path stroke="#000" fill="#cf3" d="M106 290h20v20h-20z"/><text x="128" y="310" font-size="16" color="currentColor"><tspan>#CCFF33</tspan></text><path stroke="#000" fill="#9c0" d="M210 290h20v20h-20z"/><text x="232" y="310" font-size="16" color="currentColor"><tspan>#99CC00</tspan></text><path stroke="#000" fill="#cf6" d="M314 290h20v20h-20z"/><text x="336" y="310" font-size="16" color="currentColor"><tspan>#CCFF66</tspan></text><path stroke="#000" fill="#690" d="M418 290h20v20h-20z"/><text x="440" y="310" font-size="16" color="currentColor"><tspan>#669900</tspan></text><path stroke="#000" fill="#9c3" d="M522 290h20v20h-20z"/><text x="544" y="310" font-size="16" color="currentColor"><tspan>#99CC33</tspan></text><path stroke="#000" fill="#9f0" d="M626 290h20v20h-20z"/><text x="648" y="310" font-size="16" color="currentColor"><tspan>#99FF00</tspan></text><path stroke="#000" fill="#9f3" d="M2 314h20v20H2z"/><text x="24" y="334" font-size="16" color="currentColor"><tspan>#99FF33</tspan></text><path stroke="#000" fill="#cf9" d="M106 314h20v20h-20z"/><text x="128" y="334" font-size="16" color="currentColor"><tspan>#CCFF99</tspan></text><path stroke="#000" fill="#6c0" d="M210 314h20v20h-20z"/><text x="232" y="334" font-size="16" color="currentColor"><tspan>#66CC00</tspan></text><path stroke="#000" fill="#9c6" d="M314 314h20v20h-20z"/><text x="336" y="334" font-size="16" color="currentColor"><tspan>#99CC66</tspan></text><path stroke="#000" fill="#693" d="M418 314h20v20h-20z"/><text x="440" y="334" font-size="16" color="currentColor"><tspan>#669933</tspan></text><path stroke="#000" fill="#360" d="M522 314h20v20h-20z"/><text x="544" y="334" font-size="16" color="currentColor"><tspan>#336600</tspan></text><path stroke="#000" fill="#6f0" d="M626 314h20v20h-20z"/><text x="648" y="334" font-size="16" color="currentColor"><tspan>#66FF00</tspan></text><path stroke="#000" fill="#390" d="M2 338h20v20H2z"/><text x="24" y="358" font-size="16" color="currentColor"><tspan>#339900</tspan></text><path stroke="#000" fill="#9f6" d="M106 338h20v20h-20z"/><text x="128" y="358" font-size="16" color="currentColor"><tspan>#99FF66</tspan></text><path stroke="#000" fill="#6c3" d="M210 338h20v20h-20z"/><text x="232" y="358" font-size="16" color="currentColor"><tspan>#66CC33</tspan></text><path stroke="#000" fill="#6f3" d="M314 338h20v20h-20z"/><text x="336" y="358" font-size="16" color="currentColor"><tspan>#66FF33</tspan></text><path stroke="#000" fill="#3c0" d="M418 338h20v20h-20z"/><text x="440" y="358" font-size="16" color="currentColor"><tspan>#33CC00</tspan></text><path stroke="#000" fill="#3f0" d="M522 338h20v20h-20z"/><text x="544" y="358" font-size="16" color="currentColor"><tspan>#33FF00</tspan></text><path stroke="#000" fill="#0f0" d="M626 338h20v20h-20z"/><text x="648" y="358" font-size="16" color="currentColor"><tspan>#00FF00</tspan></text><path stroke="#000" fill="#3f3" d="M2 362h20v20H2z"/><text x="24" y="382" font-size="16" color="currentColor"><tspan>#33FF33</tspan></text><path stroke="#000" fill="#6f6" d="M106 362h20v20h-20z"/><text x="128" y="382" font-size="16" color="currentColor"><tspan>#66FF66</tspan></text><path stroke="#000" fill="#9f9" d="M210 362h20v20h-20z"/><text x="232" y="382" font-size="16" color="currentColor"><tspan>#99FF99</tspan></text><path stroke="#000" fill="#cfc" d="M314 362h20v20h-20z"/><text x="336" y="382" font-size="16" color="currentColor"><tspan>#CCFFCC</tspan></text><path stroke="#000" fill="#0c0" d="M418 362h20v20h-20z"/><text x="440" y="382" font-size="16" color="currentColor"><tspan>#00CC00</tspan></text><path stroke="#000" fill="#3c3" d="M522 362h20v20h-20z"/><text x="544" y="382" font-size="16" color="currentColor"><tspan>#33CC33</tspan></text><path stroke="#000" fill="#6c6" d="M626 362h20v20h-20z"/><text x="648" y="382" font-size="16" color="currentColor"><tspan>#66CC66</tspan></text><path stroke="#000" fill="#9c9" d="M2 386h20v20H2z"/><text x="24" y="406" font-size="16" color="currentColor"><tspan>#99CC99</tspan></text><path stroke="#000" fill="#090" d="M106 386h20v20h-20z"/><text x="128" y="406" font-size="16" color="currentColor"><tspan>#009900</tspan></text><path stroke="#000" fill="#393" d="M210 386h20v20h-20z"/><text x="232" y="406" font-size="16" color="currentColor"><tspan>#339933</tspan></text><path stroke="#000" fill="#696" d="M314 386h20v20h-20z"/><text x="336" y="406" font-size="16" color="currentColor"><tspan>#669966</tspan></text><path stroke="#000" fill="#060" d="M418 386h20v20h-20z"/><text x="440" y="406" font-size="16" color="currentColor"><tspan>#006600</tspan></text><path stroke="#000" fill="#363" d="M522 386h20v20h-20z"/><text x="544" y="406" font-size="16" color="currentColor"><tspan>#336633</tspan></text><path stroke="#000" fill="#030" d="M626 386h20v20h-20z"/><text x="648" y="406" font-size="16" color="currentColor"><tspan>#003300</tspan></text><path stroke="#000" fill="#0f3" d="M2 410h20v20H2z"/><text x="24" y="430" font-size="16" color="currentColor"><tspan>#00FF33</tspan></text><path stroke="#000" fill="#3f6" d="M106 410h20v20h-20z"/><text x="128" y="430" font-size="16" color="currentColor"><tspan>#33FF66</tspan></text><path stroke="#000" fill="#0c3" d="M210 410h20v20h-20z"/><text x="232" y="430" font-size="16" color="currentColor"><tspan>#00CC33</tspan></text><path stroke="#000" fill="#6f9" d="M314 410h20v20h-20z"/><text x="336" y="430" font-size="16" color="currentColor"><tspan>#66FF99</tspan></text><path stroke="#000" fill="#3c6" d="M418 410h20v20h-20z"/><text x="440" y="430" font-size="16" color="currentColor"><tspan>#33CC66</tspan></text><path stroke="#000" fill="#093" d="M522 410h20v20h-20z"/><text x="544" y="430" font-size="16" color="currentColor"><tspan>#009933</tspan></text><path stroke="#000" fill="#0f6" d="M626 410h20v20h-20z"/><text x="648" y="430" font-size="16" color="currentColor"><tspan>#00FF66</tspan></text><path stroke="#000" fill="#3f9" d="M2 434h20v20H2z"/><text x="24" y="454" font-size="16" color="currentColor"><tspan>#33FF99</tspan></text><path stroke="#000" fill="#9fc" d="M106 434h20v20h-20z"/><text x="128" y="454" font-size="16" color="currentColor"><tspan>#99FFCC</tspan></text><path stroke="#000" fill="#0c6" d="M210 434h20v20h-20z"/><text x="232" y="454" font-size="16" color="currentColor"><tspan>#00CC66</tspan></text><path stroke="#000" fill="#6c9" d="M314 434h20v20h-20z"/><text x="336" y="454" font-size="16" color="currentColor"><tspan>#66CC99</tspan></text><path stroke="#000" fill="#396" d="M418 434h20v20h-20z"/><text x="440" y="454" font-size="16" color="currentColor"><tspan>#339966</tspan></text><path stroke="#000" fill="#063" d="M522 434h20v20h-20z"/><text x="544" y="454" font-size="16" color="currentColor"><tspan>#006633</tspan></text><path stroke="#000" fill="#0f9" d="M2 470h20v20H2z"/><text x="24" y="490" font-size="16" color="currentColor"><tspan>#00FF99</tspan></text><path stroke="#000" fill="#3c9" d="M106 470h20v20h-20z"/><text x="128" y="490" font-size="16" color="currentColor"><tspan>#33CC99</tspan></text><path stroke="#000" fill="#6fc" d="M210 470h20v20h-20z"/><text x="232" y="490" font-size="16" color="currentColor"><tspan>#66FFCC</tspan></text><path stroke="#000" fill="#096" d="M314 470h20v20h-20z"/><text x="336" y="490" font-size="16" color="currentColor"><tspan>#009966</tspan></text><path stroke="#000" fill="#3fc" d="M418 470h20v20h-20z"/><text x="440" y="490" font-size="16" color="currentColor"><tspan>#33FFCC</tspan></text><path stroke="#000" fill="#0c9" d="M522 470h20v20h-20z"/><text x="544" y="490" font-size="16" color="currentColor"><tspan>#00CC99</tspan></text><path stroke="#000" fill="#0fc" d="M626 470h20v20h-20z"/><text x="648" y="490" font-size="16" color="currentColor"><tspan>#00FFCC</tspan></text><path stroke="#000" fill="#0ff" d="M2 494h20v20H2z"/><text x="24" y="514" font-size="16" color="currentColor"><tspan>#00FFFF</tspan></text><path stroke="#000" fill="#3ff" d="M106 494h20v20h-20z"/><text x="128" y="514" font-size="16" color="currentColor"><tspan>#33FFFF</tspan></text><path stroke="#000" fill="#6ff" d="M210 494h20v20h-20z"/><text x="232" y="514" font-size="16" color="currentColor"><tspan>#66FFFF</tspan></text><path stroke="#000" fill="#9ff" d="M314 494h20v20h-20z"/><text x="336" y="514" font-size="16" color="currentColor"><tspan>#99FFFF</tspan></text><path stroke="#000" fill="#cff" d="M418 494h20v20h-20z"/><text x="440" y="514" font-size="16" color="currentColor"><tspan>#CCFFFF</tspan></text><path stroke="#000" fill="#0cc" d="M522 494h20v20h-20z"/><text x="544" y="514" font-size="16" color="currentColor"><tspan>#00CCCC</tspan></text><path stroke="#000" fill="#3cc" d="M626 494h20v20h-20z"/><text x="648" y="514" font-size="16" color="currentColor"><tspan>#33CCCC</tspan></text><path stroke="#000" fill="#6cc" d="M2 518h20v20H2z"/><text x="24" y="538" font-size="16" color="currentColor"><tspan>#66CCCC</tspan></text><path stroke="#000" fill="#9cc" d="M106 518h20v20h-20z"/><text x="128" y="538" font-size="16" color="currentColor"><tspan>#99CCCC</tspan></text><path stroke="#000" fill="#099" d="M210 518h20v20h-20z"/><text x="232" y="538" font-size="16" color="currentColor"><tspan>#009999</tspan></text><path stroke="#000" fill="#399" d="M314 518h20v20h-20z"/><text x="336" y="538" font-size="16" color="currentColor"><tspan>#339999</tspan></text><path stroke="#000" fill="#699" d="M418 518h20v20h-20z"/><text x="440" y="538" font-size="16" color="currentColor"><tspan>#669999</tspan></text><path stroke="#000" fill="#066" d="M522 518h20v20h-20z"/><text x="544" y="538" font-size="16" color="currentColor"><tspan>#006666</tspan></text><path stroke="#000" fill="#366" d="M626 518h20v20h-20z"/><text x="648" y="538" font-size="16" color="currentColor"><tspan>#336666</tspan></text><path stroke="#000" fill="#033" d="M2 542h20v20H2z"/><text x="24" y="562" font-size="16" color="currentColor"><tspan>#003333</tspan></text><path stroke="#000" fill="#0cf" d="M106 542h20v20h-20z"/><text x="128" y="562" font-size="16" color="currentColor"><tspan>#00CCFF</tspan></text><path stroke="#000" fill="#3cf" d="M210 542h20v20h-20z"/><text x="232" y="562" font-size="16" color="currentColor"><tspan>#33CCFF</tspan></text><path stroke="#000" fill="#09c" d="M314 542h20v20h-20z"/><text x="336" y="562" font-size="16" color="currentColor"><tspan>#0099CC</tspan></text><path stroke="#000" fill="#6cf" d="M418 542h20v20h-20z"/><text x="440" y="562" font-size="16" color="currentColor"><tspan>#66CCFF</tspan></text><path stroke="#000" fill="#069" d="M522 542h20v20h-20z"/><text x="544" y="562" font-size="16" color="currentColor"><tspan>#006699</tspan></text><path stroke="#000" fill="#39c" d="M626 542h20v20h-20z"/><text x="648" y="562" font-size="16" color="currentColor"><tspan>#3399CC</tspan></text><path stroke="#000" fill="#09f" d="M2 566h20v20H2z"/><text x="24" y="586" font-size="16" color="currentColor"><tspan>#0099FF</tspan></text><path stroke="#000" fill="#39f" d="M106 566h20v20h-20z"/><text x="128" y="586" font-size="16" color="currentColor"><tspan>#3399FF</tspan></text><path stroke="#000" fill="#9cf" d="M210 566h20v20h-20z"/><text x="232" y="586" font-size="16" color="currentColor"><tspan>#99CCFF</tspan></text><path stroke="#000" fill="#06c" d="M314 566h20v20h-20z"/><text x="336" y="586" font-size="16" color="currentColor"><tspan>#0066CC</tspan></text><path stroke="#000" fill="#69c" d="M418 566h20v20h-20z"/><text x="440" y="586" font-size="16" color="currentColor"><tspan>#6699CC</tspan></text><path stroke="#000" fill="#369" d="M522 566h20v20h-20z"/><text x="544" y="586" font-size="16" color="currentColor"><tspan>#336699</tspan></text><path stroke="#000" fill="#036" d="M626 566h20v20h-20z"/><text x="648" y="586" font-size="16" color="currentColor"><tspan>#003366</tspan></text><path stroke="#000" fill="#06f" d="M2 590h20v20H2z"/><text x="24" y="610" font-size="16" color="currentColor"><tspan>#0066FF</tspan></text><path stroke="#000" fill="#36c" d="M106 590h20v20h-20z"/><text x="128" y="610" font-size="16" color="currentColor"><tspan>#3366CC</tspan></text><path stroke="#000" fill="#039" d="M210 590h20v20h-20z"/><text x="232" y="610" font-size="16" color="currentColor"><tspan>#003399</tspan></text><path stroke="#000" fill="#69f" d="M314 590h20v20h-20z"/><text x="336" y="610" font-size="16" color="currentColor"><tspan>#6699FF</tspan></text><path stroke="#000" fill="#36f" d="M418 590h20v20h-20z"/><text x="440" y="610" font-size="16" color="currentColor"><tspan>#3366FF</tspan></text><path stroke="#000" fill="#03c" d="M522 590h20v20h-20z"/><text x="544" y="610" font-size="16" color="currentColor"><tspan>#0033CC</tspan></text><path stroke="#000" fill="#03f" d="M626 590h20v20h-20z"/><text x="648" y="610" font-size="16" color="currentColor"><tspan>#0033FF</tspan></text><path stroke="#000" fill="#00f" d="M2 614h20v20H2z"/><text x="24" y="634" font-size="16" color="currentColor"><tspan>#0000FF</tspan></text><path stroke="#000" fill="#33f" d="M106 614h20v20h-20z"/><text x="128" y="634" font-size="16" color="currentColor"><tspan>#3333FF</tspan></text><path stroke="#000" fill="#66f" d="M210 614h20v20h-20z"/><text x="232" y="634" font-size="16" color="currentColor"><tspan>#6666FF</tspan></text><path stroke="#000" fill="#99f" d="M314 614h20v20h-20z"/><text x="336" y="634" font-size="16" color="currentColor"><tspan>#9999FF</tspan></text><path stroke="#000" fill="#ccf" d="M418 614h20v20h-20z"/><text x="440" y="634" font-size="16" color="currentColor"><tspan>#CCCCFF</tspan></text><path stroke="#000" fill="#00c" d="M522 614h20v20h-20z"/><text x="544" y="634" font-size="16" color="currentColor"><tspan>#0000CC</tspan></text><path stroke="#000" fill="#33c" d="M626 614h20v20h-20z"/><text x="648" y="634" font-size="16" color="currentColor"><tspan>#3333CC</tspan></text><path stroke="#000" fill="#66c" d="M2 638h20v20H2z"/><text x="24" y="658" font-size="16" color="currentColor"><tspan>#6666CC</tspan></text><path stroke="#000" fill="#99c" d="M106 638h20v20h-20z"/><text x="128" y="658" font-size="16" color="currentColor"><tspan>#9999CC</tspan></text><path stroke="#000" fill="#009" d="M210 638h20v20h-20z"/><text x="232" y="658" font-size="16" color="currentColor"><tspan>#000099</tspan></text><path stroke="#000" fill="#339" d="M314 638h20v20h-20z"/><text x="336" y="658" font-size="16" color="currentColor"><tspan>#333399</tspan></text><path stroke="#000" fill="#669" d="M418 638h20v20h-20z"/><text x="440" y="658" font-size="16" color="currentColor"><tspan>#666699</tspan></text><path stroke="#000" fill="#006" d="M522 638h20v20h-20z"/><text x="544" y="658" font-size="16" color="currentColor"><tspan>#000066</tspan></text><path stroke="#000" fill="#336" d="M626 638h20v20h-20z"/><text x="648" y="658" font-size="16" color="currentColor"><tspan>#333366</tspan></text><path stroke="#000" fill="#003" d="M2 662h20v20H2z"/><text x="24" y="682" font-size="16" color="currentColor"><tspan>#000033</tspan></text><path stroke="#000" fill="#30f" d="M106 662h20v20h-20z"/><text x="128" y="682" font-size="16" color="currentColor"><tspan>#3300FF</tspan></text><path stroke="#000" fill="#63f" d="M210 662h20v20h-20z"/><text x="232" y="682" font-size="16" color="currentColor"><tspan>#6633FF</tspan></text><path stroke="#000" fill="#30c" d="M314 662h20v20h-20z"/><text x="336" y="682" font-size="16" color="currentColor"><tspan>#3300CC</tspan></text><path stroke="#000" fill="#96f" d="M2 698h20v20H2z"/><text x="24" y="718" font-size="16" color="currentColor"><tspan>#9966FF</tspan></text><path stroke="#000" fill="#63c" d="M106 698h20v20h-20z"/><text x="128" y="718" font-size="16" color="currentColor"><tspan>#6633CC</tspan></text><path stroke="#000" fill="#309" d="M210 698h20v20h-20z"/><text x="232" y="718" font-size="16" color="currentColor"><tspan>#330099</tspan></text><path stroke="#000" fill="#60f" d="M314 698h20v20h-20z"/><text x="336" y="718" font-size="16" color="currentColor"><tspan>#6600FF</tspan></text><path stroke="#000" fill="#93f" d="M418 698h20v20h-20z"/><text x="440" y="718" font-size="16" color="currentColor"><tspan>#9933FF</tspan></text><path stroke="#000" fill="#c9f" d="M522 698h20v20h-20z"/><text x="544" y="718" font-size="16" color="currentColor"><tspan>#CC99FF</tspan></text><path stroke="#000" fill="#60c" d="M626 698h20v20h-20z"/><text x="648" y="718" font-size="16" color="currentColor"><tspan>#6600CC</tspan></text><path stroke="#000" fill="#96c" d="M2 722h20v20H2z"/><text x="24" y="742" font-size="16" color="currentColor"><tspan>#9966CC</tspan></text><path stroke="#000" fill="#639" d="M106 722h20v20h-20z"/><text x="128" y="742" font-size="16" color="currentColor"><tspan>#663399</tspan></text><path stroke="#000" fill="#306" d="M210 722h20v20h-20z"/><text x="232" y="742" font-size="16" color="currentColor"><tspan>#330066</tspan></text><path stroke="#000" fill="#90f" d="M314 722h20v20h-20z"/><text x="336" y="742" font-size="16" color="currentColor"><tspan>#9900FF</tspan></text><path stroke="#000" fill="#93c" d="M418 722h20v20h-20z"/><text x="440" y="742" font-size="16" color="currentColor"><tspan>#9933CC</tspan></text><path stroke="#000" fill="#c6f" d="M522 722h20v20h-20z"/><text x="544" y="742" font-size="16" color="currentColor"><tspan>#CC66FF</tspan></text><path stroke="#000" fill="#609" d="M626 722h20v20h-20z"/><text x="648" y="742" font-size="16" color="currentColor"><tspan>#660099</tspan></text><path stroke="#000" fill="#c3f" d="M2 746h20v20H2z"/><text x="24" y="766" font-size="16" color="currentColor"><tspan>#CC33FF</tspan></text><path stroke="#000" fill="#90c" d="M106 746h20v20h-20z"/><text x="128" y="766" font-size="16" color="currentColor"><tspan>#9900CC</tspan></text><path stroke="#000" fill="#c0f" d="M210 746h20v20h-20z"/><text x="232" y="766" font-size="16" color="currentColor"><tspan>#CC00FF</tspan></text><path stroke="#000" fill="#f0f" d="M2 782h20v20H2z"/><text x="24" y="802" font-size="16" color="currentColor"><tspan>#FF00FF</tspan></text><path stroke="#000" fill="#f3f" d="M106 782h20v20h-20z"/><text x="128" y="802" font-size="16" color="currentColor"><tspan>#FF33FF</tspan></text><path stroke="#000" fill="#f6f" d="M210 782h20v20h-20z"/><text x="232" y="802" font-size="16" color="currentColor"><tspan>#FF66FF</tspan></text><path stroke="#000" fill="#f9f" d="M314 782h20v20h-20z"/><text x="336" y="802" font-size="16" color="currentColor"><tspan>#FF99FF</tspan></text><path stroke="#000" fill="#fcf" d="M418 782h20v20h-20z"/><text x="440" y="802" font-size="16" color="currentColor"><tspan>#FFCCFF</tspan></text><path stroke="#000" fill="#c0c" d="M522 782h20v20h-20z"/><text x="544" y="802" font-size="16" color="currentColor"><tspan>#CC00CC</tspan></text><path stroke="#000" fill="#c3c" d="M626 782h20v20h-20z"/><text x="648" y="802" font-size="16" color="currentColor"><tspan>#CC33CC</tspan></text><path stroke="#000" fill="#c6c" d="M2 806h20v20H2z"/><text x="24" y="826" font-size="16" color="currentColor"><tspan>#CC66CC</tspan></text><path stroke="#000" fill="#c9c" d="M106 806h20v20h-20z"/><text x="128" y="826" font-size="16" color="currentColor"><tspan>#CC99CC</tspan></text><path stroke="#000" fill="#909" d="M210 806h20v20h-20z"/><text x="232" y="826" font-size="16" color="currentColor"><tspan>#990099</tspan></text><path stroke="#000" fill="#939" d="M314 806h20v20h-20z"/><text x="336" y="826" font-size="16" color="currentColor"><tspan>#993399</tspan></text><path stroke="#000" fill="#969" d="M418 806h20v20h-20z"/><text x="440" y="826" font-size="16" color="currentColor"><tspan>#996699</tspan></text><path stroke="#000" fill="#606" d="M522 806h20v20h-20z"/><text x="544" y="826" font-size="16" color="currentColor"><tspan>#660066</tspan></text><path stroke="#000" fill="#636" d="M626 806h20v20h-20z"/><text x="648" y="826" font-size="16" color="currentColor"><tspan>#663366</tspan></text><path stroke="#000" fill="#303" d="M2 830h20v20H2z"/><text x="24" y="850" font-size="16" color="currentColor"><tspan>#330033</tspan></text><path stroke="#000" fill="#f0c" d="M106 830h20v20h-20z"/><text x="128" y="850" font-size="16" color="currentColor"><tspan>#FF00CC</tspan></text><path stroke="#000" fill="#f3c" d="M210 830h20v20h-20z"/><text x="232" y="850" font-size="16" color="currentColor"><tspan>#FF33CC</tspan></text><path stroke="#000" fill="#c09" d="M314 830h20v20h-20z"/><text x="336" y="850" font-size="16" color="currentColor"><tspan>#CC0099</tspan></text><path stroke="#000" fill="#f6c" d="M418 830h20v20h-20z"/><text x="440" y="850" font-size="16" color="currentColor"><tspan>#FF66CC</tspan></text><path stroke="#000" fill="#c39" d="M522 830h20v20h-20z"/><text x="544" y="850" font-size="16" color="currentColor"><tspan>#CC3399</tspan></text><path stroke="#000" fill="#906" d="M626 830h20v20h-20z"/><text x="648" y="850" font-size="16" color="currentColor"><tspan>#990066</tspan></text><path stroke="#000" fill="#f09" d="M2 854h20v20H2z"/><text x="24" y="874" font-size="16" color="currentColor"><tspan>#FF0099</tspan></text><path stroke="#000" fill="#f39" d="M106 854h20v20h-20z"/><text x="128" y="874" font-size="16" color="currentColor"><tspan>#FF3399</tspan></text><path stroke="#000" fill="#f9c" d="M210 854h20v20h-20z"/><text x="232" y="874" font-size="16" color="currentColor"><tspan>#FF99CC</tspan></text><path stroke="#000" fill="#c06" d="M314 854h20v20h-20z"/><text x="336" y="874" font-size="16" color="currentColor"><tspan>#CC0066</tspan></text><path stroke="#000" fill="#c69" d="M418 854h20v20h-20z"/><text x="440" y="874" font-size="16" color="currentColor"><tspan>#CC6699</tspan></text><path stroke="#000" fill="#936" d="M522 854h20v20h-20z"/><text x="544" y="874" font-size="16" color="currentColor"><tspan>#993366</tspan></text><path stroke="#000" fill="#603" d="M626 854h20v20h-20z"/><text x="648" y="874" font-size="16" color="currentColor"><tspan>#660033</tspan></text><path stroke="#000" fill="#f06" d="M2 878h20v20H2z"/><text x="24" y="898" font-size="16" color="currentColor"><tspan>#FF0066</tspan></text><path stroke="#000" fill="#f69" d="M106 878h20v20h-20z"/><text x="128" y="898" font-size="16" color="currentColor"><tspan>#FF6699</tspan></text><path stroke="#000" fill="#c36" d="M210 878h20v20h-20z"/><text x="232" y="898" font-size="16" color="currentColor"><tspan>#CC3366</tspan></text><path stroke="#000" fill="#903" d="M314 878h20v20h-20z"/><text x="336" y="898" font-size="16" color="currentColor"><tspan>#990033</tspan></text><path stroke="#000" fill="#f36" d="M418 878h20v20h-20z"/><text x="440" y="898" font-size="16" color="currentColor"><tspan>#FF3366</tspan></text><path stroke="#000" fill="#c03" d="M522 878h20v20h-20z"/><text x="544" y="898" font-size="16" color="currentColor"><tspan>#CC0033</tspan></text><path stroke="#000" fill="#f03" d="M626 878h20v20h-20z"/><text x="648" y="898" font-size="16" color="currentColor"><tspan>#FF0033</tspan></text></svg>